<svg xmlns="http://www.w3.org/2000/svg" width="60" height="54" viewBox="0 0 60 54" fill="none"><style>.a{fill:#8D28AD;}</style><path d="M26.3 15.7V12H3.8C1.7 12 0 13.7 0 15.7V23.2H27C26.5 21 26.3 18.5 26.3 15.7Z" class="a"/><path d="M59.8 30.7C57.3 34.7 53.4 38 47.8 41.3 46.9 41.7 46 42 45 42 44 42 43.1 41.7 42.2 41.3 36.6 38 32.7 34.7 30.2 30.7H0V49.5C0 51.6 1.7 53.2 3.8 53.2H56.3C58.3 53.2 60 51.6 60 49.5V30.7H59.8ZM16.9 42H9.4C8.3 42 7.5 41.2 7.5 40.1 7.5 39.1 8.3 38.2 9.4 38.2H16.9C17.9 38.2 18.8 39.1 18.8 40.1 18.8 41.2 17.9 42 16.9 42Z" class="a"/><path d="M58.9 6.5L45.7 0.9C45.3 0.7 44.7 0.7 44.3 0.9L31.1 6.5C30.4 6.8 30 7.5 30 8.2V15.7C30 26.1 33.8 32.1 44.1 38 44.4 38.2 44.7 38.2 45 38.2 45.3 38.2 45.6 38.2 45.9 38 56.2 32.1 60 26.1 60 15.7V8.2C60 7.5 59.6 6.8 58.9 6.5ZM52.1 15L44.6 24.4C44.2 24.9 43.7 25.1 43.1 25.1 43.1 25.1 43.1 25.1 43 25.1 42.5 25.1 41.9 24.8 41.6 24.3L37.8 18.7C37.2 17.8 37.5 16.6 38.3 16.1 39.2 15.5 40.4 15.7 40.9 16.6L43.3 20.1 49.2 12.7C49.8 11.9 51 11.8 51.8 12.4 52.6 13.1 52.7 14.2 52.1 15Z" class="a"/></svg>