<svg xmlns="http://www.w3.org/2000/svg" width="44" height="60" viewBox="0 0 44 60" fill="none"><style>.a{fill:#8D28AD;}</style><path d="M31.6 42L34.3 37.6 39.3 35.9 39.8 30.7 43.6 27 41.8 22.1 43.6 17.2 39.8 13.5 39.3 8.3 34.3 6.6 31.6 2.2 26.4 2.8 22 0 17.6 2.8 12.4 2.2 9.7 6.6 4.7 8.3 4.2 13.5 0.4 17.2 2.2 22.1 0.4 27 4.2 30.7 4.7 35.9 9.7 37.6 12.4 42 17.6 41.4 22 44.2 26.4 41.4 31.6 42ZM6.8 22.1C6.8 13.8 13.6 7 22 7 30.4 7 37.2 13.8 37.2 22.1 37.2 30.5 30.4 37.3 22 37.3 13.6 37.3 6.8 30.5 6.8 22.1Z" class="a"/><path d="M22 10.5C15.6 10.5 10.4 15.7 10.4 22.1 10.4 28.5 15.6 33.8 22 33.8 28.4 33.8 33.6 28.5 33.6 22.1 33.6 15.7 28.4 10.5 22 10.5Z" class="a"/><path d="M16.8 45.1L10.6 45.8 7.3 40.5 6.2 40.1 1.4 55.1 10 54.6 16.8 60 20.7 47.6 16.8 45.1Z" class="a"/><path d="M36.7 40.5L33.4 45.8 27.2 45.1 23.3 47.6 27.2 60 34 54.6 42.6 55.1 37.8 40.1 36.7 40.5Z" class="a"/></svg>