<svg xmlns="http://www.w3.org/2000/svg" width="58" height="60" viewBox="0 0 58 60" fill="none"><style>.a{fill:#8D28AD;}</style><path d="M45.5 18L29.3 11.9C29.1 11.8 28.9 11.8 28.7 11.9L12.5 18C12.2 18.1 12 18.4 12.1 18.7 12.7 25.6 15.3 33.7 18.6 39.9 22 46 25.8 49.6 29 49.6 32.2 49.6 36 46 39.4 39.9 42.7 33.7 45.3 25.6 45.9 18.7 46 18.4 45.8 18.1 45.5 18Z" class="a"/><path d="M53 9.8L31.6 0.5C29.9-0.2 28.1-0.2 26.4 0.5L5 9.8C2.3 10.9 0.7 13.7 0.9 16.6 2.1 35.8 14.6 60 29 60 43.4 60 55.9 36.7 57.1 16.6 57.3 13.6 55.7 10.9 53 9.8ZM50.2 19.1C48.8 33.6 39.8 53.9 29 53.9 18.2 53.9 9.2 33.6 7.8 19.1 7.6 16.9 8.9 14.8 11 14L27.2 7.8C27.8 7.6 28.4 7.5 29 7.5H29C29.6 7.5 30.2 7.6 30.8 7.8L47 14C49.1 14.8 50.4 16.9 50.2 19.1Z" class="a"/></svg>