<svg xmlns="http://www.w3.org/2000/svg" width="56" height="56" viewBox="0 0 56 56" fill="none"><g clip-path="url(#clip0)"><path d="M15 12V8C15 8 15 7 14 7H1C0 7 0 8 0 8V12H15Z" fill="white"/><path d="M0 14V45H15V14H0ZM11 26H4C3 26 3 26 3 25V18C3 17 3 17 4 17H11C12 17 12 17 12 18V25C12 26 12 26 11 26Z" fill="white"/><path d="M0 50V55C0 56 0 56 1 56H14C15 56 15 56 15 55V50H0Z" fill="white"/><path d="M0 47H15V49H0V47Z" fill="white"/><path d="M17 47H29V49H17V47Z" fill="white"/><path d="M29 4V1C29 0 29 0 28 0H18C17 0 17 0 17 1V4H29Z" fill="white"/><path d="M17 10H29V45H17V10Z" fill="white"/><path d="M17 50V55C17 56 17 56 18 56H28C29 56 29 56 29 55V50H17Z" fill="white"/><path d="M17 6H29V8H17V6Z" fill="white"/><path d="M31 19L31 21 47 17 47 15 31 19Z" fill="white"/><path d="M39 49L54 45 53 41 38 45 39 49Z" fill="white"/><path d="M53 39L48 19 32 23 37 44 53 39Z" fill="white"/><path d="M30 18L46 13 45 8C45 8 44 7 44 7L30 11C29 11 29 12 29 12L30 18Z" fill="white"/><path d="M55 47L39 51 40 55C40 56 40 56 41 56 41 56 41 56 41 56 41 56 41 56 41 56L55 52C56 52 56 52 56 51L55 47Z" fill="white"/></g><defs><clipPath id="clip0"><rect width="56" height="56" fill="white"/></clipPath></defs></svg>