<svg xmlns="http://www.w3.org/2000/svg" width="56" height="56" viewBox="0 0 56 56" fill="none"><style>.a{fill:white;}</style><path d="M48 30H44C44 31 44 32 44 34V50C44 51 44 51 44 52H51C54 52 56 50 56 47V38C56 34 52 30 48 30Z" class="a"/><path d="M12 34C12 32 12 31 12 30H8C4 30 0 34 0 38V47C0 50 2 52 5 52H12C12 51 12 51 12 50V34Z" class="a"/><path d="M33 26H23C19 26 15 29 15 34V50C15 51 16 52 17 52H39C40 52 41 51 41 50V34C41 29 37 26 33 26Z" class="a"/><path d="M28 4C23 4 18 9 18 14 18 18 20 21 23 22 25 23 26 24 28 24 30 24 31 23 33 22 36 21 38 18 38 14 38 9 33 4 28 4Z" class="a"/><path d="M11 13C7 13 4 17 4 21 4 25 7 28 11 28 12 28 13 28 14 27 15 27 17 25 17 24 18 23 18 22 18 21 18 17 15 13 11 13Z" class="a"/><path d="M45 13C41 13 38 17 38 21 38 22 38 23 39 24 39 25 41 27 42 27 43 28 44 28 45 28 49 28 52 25 52 21 52 17 49 13 45 13Z" class="a"/></svg>