<svg xmlns="http://www.w3.org/2000/svg" width="56" height="56" viewBox="0 0 56 56" fill="none"><style>.a{fill:white;}</style><path d="M46 0H10L3 12H53L46 0Z" class="a"/><path d="M2 15V19C2 24 5 27 10 27 12 27 14 26 16 24 17 26 20 27 22 27 24 27 27 26 28 24 29 26 32 27 34 27 36 27 39 26 40 24 42 26 44 27 46 27 51 27 54 24 54 19V15H2Z" class="a"/><path d="M46 31C44 31 42 30 40 29 38 30 36 31 34 31 32 31 30 30 28 29 26 30 24 31 22 31 20 31 18 30 16 29 14 30 12 31 10 31 8 31 7 31 6 30V56H29V35H43V56H50V30C49 30 48 31 46 31ZM23 45H13V35H23V45Z" class="a"/></svg>