<svg xmlns="http://www.w3.org/2000/svg" width="32" height="29" viewBox="0 0 32 29" fill="none"><style>.a{fill:#4D4D4D;}</style><g filter="url(#filter0_d)"><path d="M26.9 6.5H24.2L20.2 0.5C20 0.2 19.8 0.1 19.5 0 19.2 0 18.9 0 18.7 0.2 18.4 0.3 18.3 0.6 18.2 0.9 18.1 1.2 18.2 1.5 18.4 1.7L21.6 6.5H10.4L13.6 1.7C13.8 1.5 13.9 1.2 13.8 0.9 13.7 0.6 13.6 0.3 13.3 0.2 13.1 0 12.8 0 12.5 0 12.2 0.1 12 0.2 11.8 0.5L7.8 6.5H5.1C4.8 6.5 4.5 6.7 4.3 6.9 4.1 7.1 4 7.3 4 7.6 4 7.9 4.1 8.2 4.3 8.4 4.5 8.6 4.8 8.7 5.1 8.7H6.2V17.5C6.2 18.3 6.5 19.2 7.1 19.8 7.8 20.4 8.6 20.7 9.5 20.7H22.5C23.4 20.7 24.2 20.4 24.9 19.8 25.5 19.2 25.8 18.3 25.8 17.5V8.7H26.9C27.2 8.7 27.5 8.6 27.7 8.4 27.9 8.2 28 7.9 28 7.6 28 7.3 27.9 7.1 27.7 6.9 27.5 6.7 27.2 6.5 26.9 6.5ZM23.6 17.5C23.6 17.7 23.5 18 23.3 18.2 23.1 18.4 22.8 18.5 22.5 18.5H9.5C9.2 18.5 8.9 18.4 8.7 18.2 8.5 18 8.4 17.7 8.4 17.5V8.7H23.6V17.5Z" class="a"/></g><path d="M11.6 16.9C11.9 16.9 12.2 16.8 12.4 16.6 12.6 16.4 12.7 16.1 12.7 15.8V11.5C12.7 11.2 12.6 10.9 12.4 10.7 12.2 10.5 11.9 10.4 11.6 10.4 11.3 10.4 11.1 10.5 10.9 10.7 10.7 10.9 10.5 11.2 10.5 11.5V15.8C10.5 16.1 10.7 16.4 10.9 16.6 11.1 16.8 11.3 16.9 11.6 16.9Z" class="a"/><path d="M16 16.9C16.3 16.9 16.6 16.8 16.8 16.6 17 16.4 17.1 16.1 17.1 15.8V11.5C17.1 11.2 17 10.9 16.8 10.7 16.6 10.5 16.3 10.4 16 10.4 15.7 10.4 15.4 10.5 15.2 10.7 15 10.9 14.9 11.2 14.9 11.5V15.8C14.9 16.1 15 16.4 15.2 16.6 15.4 16.8 15.7 16.9 16 16.9Z" class="a"/><path d="M20.4 16.9C20.7 16.9 20.9 16.8 21.1 16.6 21.3 16.4 21.5 16.1 21.5 15.8V11.5C21.5 11.2 21.3 10.9 21.1 10.7 20.9 10.5 20.7 10.4 20.4 10.4 20.1 10.4 19.8 10.5 19.6 10.7 19.4 10.9 19.3 11.2 19.3 11.5V15.8C19.3 16.1 19.4 16.4 19.6 16.6 19.8 16.8 20.1 16.9 20.4 16.9Z" class="a"/><defs><filter id="filter0_d" width="32" height="28.7" filterUnits="userSpaceOnUse" color-interpolation-filters="sRGB"><feFlood flood-opacity="0" result="BackgroundImageFix"/><feColorMatrix in="SourceAlpha" type="matrix" values="0 0 0 0 0 0 0 0 0 0 0 0 0 0 0 0 0 0 127 0"/><feOffset dy="4"/><feGaussianBlur stdDeviation="2"/><feColorMatrix type="matrix" values="0 0 0 0 0 0 0 0 0 0 0 0 0 0 0 0 0 0 0.25 0"/><feBlend mode="normal" in2="BackgroundImageFix" result="effect1_dropShadow"/><feBlend mode="normal" in="SourceGraphic" in2="effect1_dropShadow" result="shape"/></filter></defs></svg>