<svg width="32" height="29" viewBox="0 0 32 29" fill="none" xmlns="http://www.w3.org/2000/svg">
<g filter="url(#filter0_d)">
<path d="M26.9091 6.5456H24.22L20.1836 0.485595C20.0231 0.244875 19.7734 0.0778026 19.4897 0.0211325C19.2059 -0.0355376 18.9113 0.0228363 18.6705 0.183413C18.4298 0.343989 18.2628 0.593615 18.2061 0.877375C18.1494 1.16113 18.2078 1.45578 18.3684 1.6965L21.5985 6.5456H10.4015L13.6349 1.6965C13.7955 1.45578 13.8539 1.16113 13.7972 0.877375C13.7405 0.593615 13.5734 0.343989 13.3327 0.183413C13.092 0.0228363 12.7974 -0.0355376 12.5136 0.0211325C12.2298 0.0778026 11.9802 0.244875 11.8196 0.485595L7.78 6.5456H5.09091C4.80158 6.5456 4.5241 6.66053 4.31952 6.86512C4.11493 7.0697 4 7.34718 4 7.63651C4 7.92583 4.11493 8.20331 4.31952 8.4079C4.5241 8.61248 4.80158 8.72742 5.09091 8.72742H6.18182V17.4547C6.18182 18.3227 6.52662 19.1551 7.14038 19.7689C7.75413 20.3826 8.58656 20.7274 9.45455 20.7274H22.5455C23.4134 20.7274 24.2459 20.3826 24.8596 19.7689C25.4734 19.1551 25.8182 18.3227 25.8182 17.4547V8.72742H26.9091C27.1984 8.72742 27.4759 8.61248 27.6805 8.4079C27.8851 8.20331 28 7.92583 28 7.63651C28 7.34718 27.8851 7.0697 27.6805 6.86512C27.4759 6.66053 27.1984 6.5456 26.9091 6.5456ZM23.6364 17.4547C23.6364 17.744 23.5214 18.0215 23.3168 18.2261C23.1123 18.4307 22.8348 18.5456 22.5455 18.5456H9.45455C9.16522 18.5456 8.88774 18.4307 8.68316 18.2261C8.47857 18.0215 8.36364 17.744 8.36364 17.4547V8.72742H23.6364V17.4547Z" fill="#4D4D4D"/>
</g>
<path d="M11.6363 16.9092C11.9256 16.9092 12.2031 16.7943 12.4077 16.5897C12.6123 16.3851 12.7272 16.1076 12.7272 15.8183V11.4547C12.7272 11.1654 12.6123 10.8879 12.4077 10.6833C12.2031 10.4787 11.9256 10.3638 11.6363 10.3638C11.347 10.3638 11.0695 10.4787 10.8649 10.6833C10.6603 10.8879 10.5454 11.1654 10.5454 11.4547V15.8183C10.5454 16.1076 10.6603 16.3851 10.8649 16.5897C11.0695 16.7943 11.347 16.9092 11.6363 16.9092Z" fill="#4D4D4D"/>
<path d="M16 16.9092C16.2893 16.9092 16.5668 16.7943 16.7714 16.5897C16.976 16.3851 17.0909 16.1076 17.0909 15.8183V11.4547C17.0909 11.1654 16.976 10.8879 16.7714 10.6833C16.5668 10.4787 16.2893 10.3638 16 10.3638C15.7106 10.3638 15.4332 10.4787 15.2286 10.6833C15.024 10.8879 14.9091 11.1654 14.9091 11.4547V15.8183C14.9091 16.1076 15.024 16.3851 15.2286 16.5897C15.4332 16.7943 15.7106 16.9092 16 16.9092Z" fill="#4D4D4D"/>
<path d="M20.3635 16.9092C20.6528 16.9092 20.9303 16.7943 21.1349 16.5897C21.3395 16.3851 21.4544 16.1076 21.4544 15.8183V11.4547C21.4544 11.1654 21.3395 10.8879 21.1349 10.6833C20.9303 10.4787 20.6528 10.3638 20.3635 10.3638C20.0742 10.3638 19.7967 10.4787 19.5921 10.6833C19.3875 10.8879 19.2726 11.1654 19.2726 11.4547V15.8183C19.2726 16.1076 19.3875 16.3851 19.5921 16.5897C19.7967 16.7943 20.0742 16.9092 20.3635 16.9092Z" fill="#4D4D4D"/>
<defs>
<filter id="filter0_d" x="0" y="0" width="32" height="28.7274" filterUnits="userSpaceOnUse" color-interpolation-filters="sRGB">
<feFlood flood-opacity="0" result="BackgroundImageFix"/>
<feColorMatrix in="SourceAlpha" type="matrix" values="0 0 0 0 0 0 0 0 0 0 0 0 0 0 0 0 0 0 127 0"/>
<feOffset dy="4"/>
<feGaussianBlur stdDeviation="2"/>
<feColorMatrix type="matrix" values="0 0 0 0 0 0 0 0 0 0 0 0 0 0 0 0 0 0 0.25 0"/>
<feBlend mode="normal" in2="BackgroundImageFix" result="effect1_dropShadow"/>
<feBlend mode="normal" in="SourceGraphic" in2="effect1_dropShadow" result="shape"/>
</filter>
</defs>
</svg>
