<svg xmlns="http://www.w3.org/2000/svg" width="60" height="60" viewBox="0 0 60 60" fill="none"><style>.a{fill-opacity:0.2;fill:white;}</style><path d="M5 3C5 4 4 5 3 5 1 5 0 4 0 3 0 1 1 0 3 0 4 0 5 1 5 3Z" class="a"/><path d="M16 3C16 4 15 5 14 5 12 5 11 4 11 3 11 1 12 0 14 0 15 0 16 1 16 3Z" class="a"/><path d="M27 3C27 4 26 5 25 5 23 5 22 4 22 3 22 1 23 0 25 0 26 0 27 1 27 3Z" class="a"/><path d="M38 3C38 4 37 5 36 5 34 5 33 4 33 3 33 1 34 0 36 0 37 0 38 1 38 3Z" class="a"/><path d="M49 3C49 4 48 5 47 5 45 5 44 4 44 3 44 1 45 0 47 0 48 0 49 1 49 3Z" class="a"/><path d="M60 3C60 4 59 5 58 5 56 5 55 4 55 3 55 1 56 0 58 0 59 0 60 1 60 3Z" class="a"/><path d="M5 14C5 15 4 16 3 16 1 16 0 15 0 14 0 12 1 11 3 11 4 11 5 12 5 14Z" class="a"/><path d="M16 14C16 15 15 16 14 16 12 16 11 15 11 14 11 12 12 11 14 11 15 11 16 12 16 14Z" class="a"/><path d="M27 14C27 15 26 16 25 16 23 16 22 15 22 14 22 12 23 11 25 11 26 11 27 12 27 14Z" class="a"/><path d="M38 14C38 15 37 16 36 16 34 16 33 15 33 14 33 12 34 11 36 11 37 11 38 12 38 14Z" class="a"/><path d="M49 14C49 15 48 16 47 16 45 16 44 15 44 14 44 12 45 11 47 11 48 11 49 12 49 14Z" class="a"/><path d="M60 14C60 15 59 16 58 16 56 16 55 15 55 14 55 12 56 11 58 11 59 11 60 12 60 14Z" class="a"/><path d="M5 25C5 26 4 27 3 27 1 27 0 26 0 25 0 23 1 22 3 22 4 22 5 23 5 25Z" class="a"/><path d="M16 25C16 26 15 27 14 27 12 27 11 26 11 25 11 23 12 22 14 22 15 22 16 23 16 25Z" class="a"/><path d="M27 25C27 26 26 27 25 27 23 27 22 26 22 25 22 23 23 22 25 22 26 22 27 23 27 25Z" class="a"/><path d="M38 25C38 26 37 27 36 27 34 27 33 26 33 25 33 23 34 22 36 22 37 22 38 23 38 25Z" class="a"/><path d="M49 25C49 26 48 27 47 27 45 27 44 26 44 25 44 23 45 22 47 22 48 22 49 23 49 25Z" class="a"/><path d="M60 25C60 26 59 27 58 27 56 27 55 26 55 25 55 23 56 22 58 22 59 22 60 23 60 25Z" class="a"/><path d="M5 36C5 37 4 38 3 38 1 38 0 37 0 36 0 34 1 33 3 33 4 33 5 34 5 36Z" class="a"/><path d="M16 36C16 37 15 38 14 38 12 38 11 37 11 36 11 34 12 33 14 33 15 33 16 34 16 36Z" class="a"/><path d="M27 36C27 37 26 38 25 38 23 38 22 37 22 36 22 34 23 33 25 33 26 33 27 34 27 36Z" class="a"/><path d="M38 36C38 37 37 38 36 38 34 38 33 37 33 36 33 34 34 33 36 33 37 33 38 34 38 36Z" class="a"/><path d="M49 36C49 37 48 38 47 38 45 38 44 37 44 36 44 34 45 33 47 33 48 33 49 34 49 36Z" class="a"/><path d="M60 36C60 37 59 38 58 38 56 38 55 37 55 36 55 34 56 33 58 33 59 33 60 34 60 36Z" class="a"/><path d="M5 47C5 48 4 49 3 49 1 49 0 48 0 47 0 45 1 44 3 44 4 44 5 45 5 47Z" class="a"/><path d="M16 47C16 48 15 49 14 49 12 49 11 48 11 47 11 45 12 44 14 44 15 44 16 45 16 47Z" class="a"/><path d="M27 47C27 48 26 49 25 49 23 49 22 48 22 47 22 45 23 44 25 44 26 44 27 45 27 47Z" class="a"/><path d="M38 47C38 48 37 49 36 49 34 49 33 48 33 47 33 45 34 44 36 44 37 44 38 45 38 47Z" class="a"/><path d="M49 47C49 48 48 49 47 49 45 49 44 48 44 47 44 45 45 44 47 44 48 44 49 45 49 47Z" class="a"/><path d="M60 47C60 48 59 49 58 49 56 49 55 48 55 47 55 45 56 44 58 44 59 44 60 45 60 47Z" class="a"/><path d="M5 58C5 59 4 60 3 60 1 60 0 59 0 58 0 56 1 55 3 55 4 55 5 56 5 58Z" class="a"/><path d="M16 58C16 59 15 60 14 60 12 60 11 59 11 58 11 56 12 55 14 55 15 55 16 56 16 58Z" class="a"/><path d="M27 58C27 59 26 60 25 60 23 60 22 59 22 58 22 56 23 55 25 55 26 55 27 56 27 58Z" class="a"/><path d="M38 58C38 59 37 60 36 60 34 60 33 59 33 58 33 56 34 55 36 55 37 55 38 56 38 58Z" class="a"/><path d="M49 58C49 59 48 60 47 60 45 60 44 59 44 58 44 56 45 55 47 55 48 55 49 56 49 58Z" class="a"/><path d="M60 58C60 59 59 60 58 60 56 60 55 59 55 58 55 56 56 55 58 55 59 55 60 56 60 58Z" class="a"/></svg>