<svg xmlns="http://www.w3.org/2000/svg" width="145" height="69" viewBox="0 0 145 69" fill="none"><style>.a{fill:white;}</style><path d="M8 4C8 6 6 8 4 8 2 8 0 6 0 4 0 2 2 0 4 0 6 0 8 2 8 4Z" class="a"/><path d="M37 4C37 6 35 8 33 8 30 8 28 6 28 4 28 2 30 0 33 0 35 0 37 2 37 4Z" class="a"/><path d="M65 4C65 6 63 8 61 8 59 8 57 6 57 4 57 2 59 0 61 0 63 0 65 2 65 4Z" class="a"/><path d="M93 4C93 6 91 8 89 8 87 8 85 6 85 4 85 2 87 0 89 0 91 0 93 2 93 4Z" class="a"/><path d="M122 4C122 6 120 8 118 8 115 8 113 6 113 4 113 2 115 0 118 0 120 0 122 2 122 4Z" class="a"/><path d="M150 4C150 6 148 8 146 8 144 8 142 6 142 4 142 2 144 0 146 0 148 0 150 2 150 4Z" class="a"/><path d="M8 32C8 35 6 37 4 37 2 37 0 35 0 32 0 30 2 28 4 28 6 28 8 30 8 32Z" class="a"/><path d="M37 32C37 35 35 37 33 37 30 37 28 35 28 32 28 30 30 28 33 28 35 28 37 30 37 32Z" class="a"/><path d="M65 32C65 35 63 37 61 37 59 37 57 35 57 32 57 30 59 28 61 28 63 28 65 30 65 32Z" class="a"/><path d="M93 32C93 35 91 37 89 37 87 37 85 35 85 32 85 30 87 28 89 28 91 28 93 30 93 32Z" class="a"/><path d="M122 32C122 35 120 37 118 37 115 37 113 35 113 32 113 30 115 28 118 28 120 28 122 30 122 32Z" class="a"/><path d="M150 32C150 35 148 37 146 37 144 37 142 35 142 32 142 30 144 28 146 28 148 28 150 30 150 32Z" class="a"/><path d="M8 61C8 63 6 65 4 65 2 65 0 63 0 61 0 59 2 57 4 57 6 57 8 59 8 61Z" class="a"/><path d="M37 61C37 63 35 65 33 65 30 65 28 63 28 61 28 59 30 57 33 57 35 57 37 59 37 61Z" class="a"/><path d="M65 61C65 63 63 65 61 65 59 65 57 63 57 61 57 59 59 57 61 57 63 57 65 59 65 61Z" class="a"/><path d="M93 61C93 63 91 65 89 65 87 65 85 63 85 61 85 59 87 57 89 57 91 57 93 59 93 61Z" class="a"/><path d="M122 61C122 63 120 65 118 65 115 65 113 63 113 61 113 59 115 57 118 57 120 57 122 59 122 61Z" class="a"/><path d="M150 61C150 63 148 65 146 65 144 65 142 63 142 61 142 59 144 57 146 57 148 57 150 59 150 61Z" class="a"/><path d="M8 89C8 91 6 93 4 93 2 93 0 91 0 89 0 87 2 85 4 85 6 85 8 87 8 89Z" class="a"/><path d="M37 89C37 91 35 93 33 93 30 93 28 91 28 89 28 87 30 85 33 85 35 85 37 87 37 89Z" class="a"/><path d="M65 89C65 91 63 93 61 93 59 93 57 91 57 89 57 87 59 85 61 85 63 85 65 87 65 89Z" class="a"/><path d="M93 89C93 91 91 93 89 93 87 93 85 91 85 89 85 87 87 85 89 85 91 85 93 87 93 89Z" class="a"/><path d="M122 89C122 91 120 93 118 93 115 93 113 91 113 89 113 87 115 85 118 85 120 85 122 87 122 89Z" class="a"/><path d="M150 89C150 91 148 93 146 93 144 93 142 91 142 89 142 87 144 85 146 85 148 85 150 87 150 89Z" class="a"/><path d="M8 118C8 120 6 122 4 122 2 122 0 120 0 118 0 115 2 113 4 113 6 113 8 115 8 118Z" class="a"/><path d="M37 118C37 120 35 122 33 122 30 122 28 120 28 118 28 115 30 113 33 113 35 113 37 115 37 118Z" class="a"/><path d="M65 118C65 120 63 122 61 122 59 122 57 120 57 118 57 115 59 113 61 113 63 113 65 115 65 118Z" class="a"/><path d="M93 118C93 120 91 122 89 122 87 122 85 120 85 118 85 115 87 113 89 113 91 113 93 115 93 118Z" class="a"/><path d="M122 118C122 120 120 122 118 122 115 122 113 120 113 118 113 115 115 113 118 113 120 113 122 115 122 118Z" class="a"/><path d="M150 118C150 120 148 122 146 122 144 122 142 120 142 118 142 115 144 113 146 113 148 113 150 115 150 118Z" class="a"/><path d="M8 146C8 148 6 150 4 150 2 150 0 148 0 146 0 144 2 142 4 142 6 142 8 144 8 146Z" class="a"/><path d="M37 146C37 148 35 150 33 150 30 150 28 148 28 146 28 144 30 142 33 142 35 142 37 144 37 146Z" class="a"/><path d="M65 146C65 148 63 150 61 150 59 150 57 148 57 146 57 144 59 142 61 142 63 142 65 144 65 146Z" class="a"/><path d="M93 146C93 148 91 150 89 150 87 150 85 148 85 146 85 144 87 142 89 142 91 142 93 144 93 146Z" class="a"/><path d="M122 146C122 148 120 150 118 150 115 150 113 148 113 146 113 144 115 142 118 142 120 142 122 144 122 146Z" class="a"/><path d="M150 146C150 148 148 150 146 150 144 150 142 148 142 146 142 144 144 142 146 142 148 142 150 144 150 146Z" class="a"/></svg>