<svg xmlns="http://www.w3.org/2000/svg" width="20" height="20" viewBox="0 0 20 20" fill="none"><path d="M17.8 0.7H1.4C0.6 0.7 0 1.3 0 2V17.8C0 18.5 0.6 19.1 1.4 19.1H17.8C18.6 19.1 19.2 18.5 19.2 17.8V2C19.2 1.3 18.6 0.7 17.8 0.7ZM5.8 16.5H3V7.7H5.8V16.5H5.8ZM4.4 6.5C3.5 6.5 2.7 5.8 2.7 4.9 2.7 4.1 3.5 3.3 4.4 3.3 5.3 3.3 6 4.1 6 4.9 6 5.8 5.3 6.5 4.4 6.5ZM16.5 16.5H13.6V12.2C13.6 11.2 13.6 9.9 12.1 9.9 10.7 9.9 10.4 11 10.4 12.1V16.5H7.6V7.7H10.3V8.9H10.4C10.7 8.2 11.7 7.5 13.1 7.5 15.9 7.5 16.5 9.3 16.5 11.7V16.5Z" fill="#CA8FDD"/></svg>