<svg xmlns="http://www.w3.org/2000/svg" xmlns:xlink="http://www.w3.org/1999/xlink" viewBox="0 0 25 20" width="25" height="20">
<symbol id="facebook" viewBox="0 0 10 18">
    <path  d="M9 10L9.5 6.8H6.4V4.8C6.4 3.9 6.8 3 8.2 3H9.6V0.3C9.6 0.3 8.3 0.1 7.1 0.1 4.5 0.1 2.8 1.6 2.8 4.4V6.8H0V10H2.8V17.7H6.4V10H9Z" fill="#CA8FDD"/>
</symbol>
<symbol id="youtube" viewBox="0 0 25 19">
    <path d="M24.5 2.9C24.2 1.8 23.3 1 22.3 0.7 20.3 0.1 12.5 0.1 12.5 0.1 12.5 0.1 4.7 0.1 2.7 0.7 1.7 1 0.8 1.8 0.5 2.9 0 4.9 0 9.1 0 9.1 0 9.1 0 13.3 0.5 15.3 0.8 16.4 1.7 17.3 2.7 17.6 4.7 18.1 12.5 18.1 12.5 18.1 12.5 18.1 20.3 18.1 22.3 17.6 23.3 17.3 24.2 16.4 24.5 15.3 25 13.3 25 9.1 25 9.1 25 9.1 25 4.9 24.5 2.9ZM9.9 12.9V5.3L16.5 9.1 9.9 12.9Z" fill="#CA8FDD"/>
</symbol>
<symbol id="twitter" viewBox="0 0 18 16">
    <path d="M15.8 4C15.8 4.2 15.8 4.4 15.8 4.5 15.8 9.7 12.2 15.7 5.5 15.7 3.5 15.7 1.6 15.1 0 14 0.3 14 0.6 14 0.9 14 2.6 14 4.1 13.4 5.3 12.3 3.8 12.3 2.4 11.1 2 9.6 2.2 9.6 2.4 9.6 2.7 9.6 3 9.6 3.3 9.6 3.6 9.5 2 9.2 0.7 7.6 0.7 5.7V5.6C1.2 5.9 1.8 6.1 2.3 6.1 1.4 5.4 0.7 4.2 0.7 2.8 0.7 2.1 0.9 1.4 1.2 0.8 3 3.2 5.7 4.8 8.7 5 8.6 4.7 8.6 4.4 8.6 4.1 8.6 1.9 10.2 0.1 12.2 0.1 13.2 0.1 14.2 0.6 14.8 1.4 15.6 1.2 16.4 0.9 17.1 0.4 16.8 1.3 16.3 2.1 15.5 2.6 16.2 2.5 17 2.3 17.6 2 17.1 2.8 16.5 3.4 15.8 4Z" fill="#CA8FDD"/>
</symbol>
<symbol id="linkedin" viewBox="0 0 20 20">
    <path d="M17.8 0.7H1.4C0.6 0.7 0 1.3 0 2V17.8C0 18.5 0.6 19.1 1.4 19.1H17.8C18.6 19.1 19.2 18.5 19.2 17.8V2C19.2 1.3 18.6 0.7 17.8 0.7ZM5.8 16.5H3V7.7H5.8V16.5H5.8ZM4.4 6.5C3.5 6.5 2.7 5.8 2.7 4.9 2.7 4.1 3.5 3.3 4.4 3.3 5.3 3.3 6 4.1 6 4.9 6 5.8 5.3 6.5 4.4 6.5ZM16.5 16.5H13.6V12.2C13.6 11.2 13.6 9.9 12.1 9.9 10.7 9.9 10.4 11 10.4 12.1V16.5H7.6V7.7H10.3V8.9H10.4C10.7 8.2 11.7 7.5 13.1 7.5 15.9 7.5 16.5 9.3 16.5 11.7V16.5Z" fill="#CA8FDD"/>
</symbol>
<symbol id="instagram" viewBox="0 0 18 18">
    <path d="M8.8 4.4C6.3 4.4 4.3 6.4 4.3 8.9 4.3 11.4 6.3 13.4 8.8 13.4 11.3 13.4 13.3 11.4 13.3 8.9 13.3 6.4 11.3 4.4 8.8 4.4ZM8.8 11.9C7.2 11.9 5.9 10.5 5.9 8.9 5.9 7.3 7.2 6 8.8 6 10.4 6 11.7 7.3 11.7 8.9 11.7 10.5 10.4 11.9 8.8 11.9ZM14.6 4.2C14.6 4.8 14.1 5.3 13.5 5.3 12.9 5.3 12.4 4.8 12.4 4.2 12.4 3.6 12.9 3.2 13.5 3.2 14.1 3.2 14.6 3.6 14.6 4.2ZM17.5 5.3C17.5 3.9 17.1 2.6 16.1 1.6 15.1 0.6 13.8 0.3 12.4 0.2 11 0.1 6.6 0.1 5.2 0.2 3.8 0.2 2.5 0.6 1.5 1.6 0.5 2.6 0.1 3.9 0.1 5.3 0 6.7 0 11.1 0.1 12.5 0.1 14 0.5 15.2 1.5 16.2 2.5 17.3 3.8 17.6 5.2 17.7 6.6 17.7 11 17.7 12.4 17.7 13.8 17.6 15.1 17.3 16.1 16.2 17.1 15.2 17.5 14 17.5 12.5 17.6 11.1 17.6 6.7 17.5 5.3ZM15.7 14.1C15.4 14.9 14.8 15.5 14 15.8 12.8 16.2 10.1 16.1 8.8 16.1 7.5 16.1 4.8 16.2 3.6 15.8 2.8 15.5 2.3 14.9 1.9 14.1 1.5 12.9 1.6 10.2 1.6 8.9 1.6 7.6 1.5 4.9 1.9 3.7 2.2 3 2.8 2.4 3.6 2.1 4.8 1.6 7.5 1.7 8.8 1.7 10.1 1.7 12.8 1.6 14 2.1 14.8 2.4 15.4 3 15.7 3.7 16.1 4.9 16 7.6 16 8.9 16 10.2 16.1 13 15.7 14.1Z" fill="#CA8FDD"/>
</symbol>
<!-- define view locations for each icon -->
<view id="facebook-view" viewBox="0 0 10 18" />
<view id="youtube-view" viewBox="0 40 25 19" />
<view id="twitter-view" viewBox="0 80 18 16" />
<view id="linkedin-view" viewBox="0 120 20 20" />
<view id="instagram-view" viewBox="0 160 18 18" />
<!-- add icons to document and position to match their corresponding view -->
<use xlink:href="#facebook" width="10" height="18" x="0" y="0"></use>
<use xlink:href="#youtube" width="25" height="19" x="0" y="40"></use>
<use xlink:href="#twitter" width="18" height="16" x="0" y="80"></use>
<use xlink:href="#linkedin" width="20" height="20" x="0" y="120"></use>
<use xlink:href="#instagram" width="18" height="18" x="0" y="160"></use>
</svg>