<svg xmlns="http://www.w3.org/2000/svg" width="18" height="18" viewBox="0 0 18 18" fill="none"><path d="M8.8 4.4C6.3 4.4 4.3 6.4 4.3 8.9 4.3 11.4 6.3 13.4 8.8 13.4 11.3 13.4 13.3 11.4 13.3 8.9 13.3 6.4 11.3 4.4 8.8 4.4ZM8.8 11.9C7.2 11.9 5.9 10.5 5.9 8.9 5.9 7.3 7.2 6 8.8 6 10.4 6 11.7 7.3 11.7 8.9 11.7 10.5 10.4 11.9 8.8 11.9ZM14.6 4.2C14.6 4.8 14.1 5.3 13.5 5.3 12.9 5.3 12.4 4.8 12.4 4.2 12.4 3.6 12.9 3.2 13.5 3.2 14.1 3.2 14.6 3.6 14.6 4.2ZM17.5 5.3C17.5 3.9 17.1 2.6 16.1 1.6 15.1 0.6 13.8 0.3 12.4 0.2 11 0.1 6.6 0.1 5.2 0.2 3.8 0.2 2.5 0.6 1.5 1.6 0.5 2.6 0.1 3.9 0.1 5.3 0 6.7 0 11.1 0.1 12.5 0.1 14 0.5 15.2 1.5 16.2 2.5 17.3 3.8 17.6 5.2 17.7 6.6 17.7 11 17.7 12.4 17.7 13.8 17.6 15.1 17.3 16.1 16.2 17.1 15.2 17.5 14 17.5 12.5 17.6 11.1 17.6 6.7 17.5 5.3ZM15.7 14.1C15.4 14.9 14.8 15.5 14 15.8 12.8 16.2 10.1 16.1 8.8 16.1 7.5 16.1 4.8 16.2 3.6 15.8 2.8 15.5 2.3 14.9 1.9 14.1 1.5 12.9 1.6 10.2 1.6 8.9 1.6 7.6 1.5 4.9 1.9 3.7 2.2 3 2.8 2.4 3.6 2.1 4.8 1.6 7.5 1.7 8.8 1.7 10.1 1.7 12.8 1.6 14 2.1 14.8 2.4 15.4 3 15.7 3.7 16.1 4.9 16 7.6 16 8.9 16 10.2 16.1 13 15.7 14.1Z" fill="#fff"/></svg>