<svg xmlns="http://www.w3.org/2000/svg" width="18" height="16" viewBox="0 0 18 16" fill="none"><path d="M15.8 4C15.8 4.2 15.8 4.4 15.8 4.5 15.8 9.7 12.2 15.7 5.5 15.7 3.5 15.7 1.6 15.1 0 14 0.3 14 0.6 14 0.9 14 2.6 14 4.1 13.4 5.3 12.3 3.8 12.3 2.4 11.1 2 9.6 2.2 9.6 2.4 9.6 2.7 9.6 3 9.6 3.3 9.6 3.6 9.5 2 9.2 0.7 7.6 0.7 5.7V5.6C1.2 5.9 1.8 6.1 2.3 6.1 1.4 5.4 0.7 4.2 0.7 2.8 0.7 2.1 0.9 1.4 1.2 0.8 3 3.2 5.7 4.8 8.7 5 8.6 4.7 8.6 4.4 8.6 4.1 8.6 1.9 10.2 0.1 12.2 0.1 13.2 0.1 14.2 0.6 14.8 1.4 15.6 1.2 16.4 0.9 17.1 0.4 16.8 1.3 16.3 2.1 15.5 2.6 16.2 2.5 17 2.3 17.6 2 17.1 2.8 16.5 3.4 15.8 4Z" fill="#fff"/></svg>